# xmcd
#
# Track frame offsets:
#	150
#	11962
#	22285
#	31992
#	45275
#	55775
#	67657
#	82695
#
# Disc length: 1249
#
# Revision: 3
# Processed by: cddbd v1.5.1PL0 Copyright (c) Steve Scherf et al.
# Submitted via: ExactAudioCopy v0.90b2
# Normalized: r2:DSETVAR1
#
DISCID=5504df08
DTITLE=Various Artist - Country Hits Vol. 1
DYEAR=1992
DGENRE=Country
TTITLE0=Tom T. Hall - I Like Beer
TTITLE1=Connie Smith - Once A Day
TTITLE2=Dave Dudley - Six Days On The Road
TTITLE3=Lynn Anderson - Rose Garden
TTITLE4=Carl Belew - Am I That Easy To Forget
TTITLE5=Patsy Cline - Walkin' After Midnight
TTITLE6=Jeannie C. Riley - Harper Valley P.T.A.
TTITLE7=George Jones - Tender Years
EXTD=
EXTT0=
EXTT1=
EXTT2=
EXTT3=
EXTT4=
EXTT5=
EXTT6=
EXTT7=
PLAYORDER=
